<svg xmlns="http://www.w3.org/2000/svg" viewBox="0 0 1240 256" role="img" aria-labelledby="title desc">
  <title id="title">MojoQuiz Logo</title>
  <desc id="desc">MojoQuiz wordmark with gradient speech-bubble lightning icon.</desc>
  <defs>
    <linearGradient id="mq-logo-bg" x1="28" y1="24" x2="226" y2="232" gradientUnits="userSpaceOnUse">
      <stop offset="0" stop-color="#2744b8"/>
      <stop offset="0.56" stop-color="#5b2fc9"/>
      <stop offset="1" stop-color="#8e18ef"/>
    </linearGradient>
    <linearGradient id="mq-logo-bolt" x1="118" y1="88" x2="162" y2="168" gradientUnits="userSpaceOnUse">
      <stop offset="0" stop-color="#6a32c4"/>
      <stop offset="1" stop-color="#4f1fb4"/>
    </linearGradient>
    <linearGradient id="mq-logo-text" x1="300" y1="40" x2="1130" y2="224" gradientUnits="userSpaceOnUse">
      <stop offset="0" stop-color="#142b51"/>
      <stop offset="1" stop-color="#0a1936"/>
    </linearGradient>
  </defs>

  <rect x="14" y="14" width="228" height="228" rx="56" fill="url(#mq-logo-bg)"/>
  <path
    d="M127.5 56c40.6 0 73.5 32.9 73.5 73.5S168.1 203 127.5 203c-13.1 0-25.3-3.5-35.9-9.5L65 203l6.4-26.3A73.2 73.2 0 0 1 54 129.5C54 88.9 86.9 56 127.5 56Z"
    fill="#ffffff"
  />
  <path
    d="m141.9 88.6-24.3 37.5h20.2l-19.9 40.9 45.5-53.5h-21.1l-.4-24.9Z"
    fill="url(#mq-logo-bolt)"
  />

  <text
    x="304"
    y="170"
    fill="url(#mq-logo-text)"
    font-family="Poppins, Montserrat, Arial, sans-serif"
    font-size="142"
    font-weight="700"
    letter-spacing="-1.4"
  >
    MojoQuiz
  </text>
</svg>
